<?xml version="1.0" encoding="UTF-8" standalone="no"?>
<svg width="20px" height="20px" viewBox="0 0 20 20" version="1.1" xmlns="http://www.w3.org/2000/svg" xmlns:xlink="http://www.w3.org/1999/xlink" xmlns:sketch="http://www.bohemiancoding.com/sketch/ns">
    <!-- Generator: Sketch 3.3.1 (12002) - http://www.bohemiancoding.com/sketch -->
    <title>Rectangle 276 + Oval 54</title>
    <desc>Created with Sketch.</desc>
    <defs></defs>
    <g id="Cezar-v.1.3" stroke="none" stroke-width="1" fill="none" fill-rule="evenodd" sketch:type="MSPage">
        <g id="user-copy" sketch:type="MSArtboardGroup" transform="translate(-14.000000, -14.000000)">
            <g id="Rectangle-276-Copy-2-+-Rectangle-276-+-Oval-54" sketch:type="MSLayerGroup">
                <g id="Rectangle-276-+-Oval-54" transform="translate(12.000000, 12.000000)" sketch:type="MSShapeGroup">
                    <rect id="Rectangle-276" x="0" y="0" width="24" height="24"></rect>
                    <path d="M14.9056439,16.3198574 C13.5509601,17.3729184 11.8487115,18 10,18 C5.581722,18 2,14.418278 2,10 C2,5.581722 5.581722,2 10,2 C14.418278,2 18,5.581722 18,10 C18,11.8487115 17.3729184,13.5509601 16.3198574,14.9056439 L21.0710678,19.6568542 L19.6568542,21.0710678 L14.9056439,16.3198574 Z M10,16 C13.3137085,16 16,13.3137085 16,10 C16,6.6862915 13.3137085,4 10,4 C6.6862915,4 4,6.6862915 4,10 C4,13.3137085 6.6862915,16 10,16 Z" id="Oval-54" fill="#FFFFFF"></path>
                </g>
            </g>
        </g>
    </g>
</svg>